<svg width="16" height="16" viewBox="0 0 16 16" fill="none" xmlns="http://www.w3.org/2000/svg">
  <path fill-rule="evenodd" clip-rule="evenodd" d="M13.329 3.37221V0.958679H12.329V4.14007C12.2668 4.23472 12.2036 4.32904 12.1394 4.42274L11.9806 2.38703L10.9837 2.46479L11.229 5.61039C11.111 5.74923 10.9925 5.88696 10.873 6.02376L10.6612 4.22987L9.66808 4.34716L9.98211 7.00617L9.40929 7.60914C9.37271 7.37805 9.33509 7.1337 9.29942 6.89825C9.25103 6.57894 9.20689 6.28056 9.17484 6.06196L9.13685 5.80147L9.12298 5.70553L8.13311 5.84751L8.1472 5.945L8.18542 6.20703C8.21763 6.42668 8.26201 6.72672 8.3107 7.04807C8.38624 7.54655 8.47382 8.10767 8.54256 8.49696C8.3593 8.66256 8.16979 8.82466 7.97502 8.98941C7.95107 9.00967 7.92701 9.02999 7.90286 9.05038L7.72762 7.31633L6.73269 7.41687L6.97826 9.8468C6.7551 10.0363 6.52085 10.2192 6.2803 10.3979L6.08011 8.62076L5.0864 8.73269L5.34562 11.034C2.4479 12.7512 1.56305 14.2616 0.676558 15.4805L1.05799 15.6404C1.8198 14.5929 2.98299 13.5974 5.84641 11.8996L6.93136 12.7082L7.52894 11.9064L6.72842 11.3098C7.00489 11.1081 7.28101 10.897 7.54735 10.6748L9.51336 11.9211L10.0488 11.0765L8.33782 9.99193C8.3854 9.95167 8.43327 9.91128 8.48143 9.87063C8.52762 9.83166 8.57409 9.79245 8.62084 9.75289C8.80331 9.59855 8.98887 9.4401 9.17262 9.27527C9.57336 9.46844 10.1744 9.7546 10.7251 10.016C11.0871 10.1879 11.4287 10.3497 11.6798 10.4685L12.0911 10.6631L12.5188 9.75918L12.1076 9.56468C11.8567 9.44595 11.5155 9.2843 11.1539 9.11265C10.7316 8.91215 10.2834 8.69888 9.91908 8.52442L10.6773 7.72628L14.2857 8.4701L14.4876 7.49069L11.4631 6.86724C11.6414 6.66557 11.8175 6.46223 11.9921 6.25667L15.2083 5.97831L15.1221 4.98204L12.8305 5.18037C12.9545 5.00478 13.0743 4.82766 13.1898 4.6509L15.4358 3.20572L14.8946 2.36478L13.329 3.37221Z" fill="black" />
</svg>
